<svg width="12" height="12" viewBox="0 0 12 12" fill="none" xmlns="http://www.w3.org/2000/svg">
<path d="M2.42933 2.81866C2.56888 2.66563 2.55795 2.42844 2.40491 2.28889C2.25188 2.14935 2.0147 2.16028 1.87515 2.31331L2.42933 2.81866ZM4 2.12498C4.00305 2.12498 4.0061 2.12498 4.00915 2.12498C4.01219 2.12498 4.01523 2.12498 4.01827 2.12498C4.02132 2.12498 4.02435 2.12498 4.02739 2.12498C4.03042 2.12498 4.03346 2.12498 4.03649 2.12498C4.03952 2.12498 4.04254 2.12498 4.04557 2.12498C4.04859 2.12498 4.05162 2.12498 4.05464 2.12498C4.05766 2.12498 4.06067 2.12498 4.06369 2.12498C4.0667 2.12498 4.06972 2.12498 4.07273 2.12498C4.07574 2.12498 4.07874 2.12498 4.08175 2.12498C4.08475 2.12498 4.08775 2.12498 4.09075 2.12498C4.09375 2.12498 4.09675 2.12498 4.09975 2.12498C4.10274 2.12498 4.10573 2.12498 4.10872 2.12498C4.11171 2.12498 4.1147 2.12498 4.11768 2.12498C4.12067 2.12498 4.12365 2.12498 4.12663 2.12498C4.12961 2.12498 4.13259 2.12498 4.13556 2.12498C4.13854 2.12498 4.14151 2.12498 4.14448 2.12498C4.14745 2.12498 4.15041 2.12498 4.15338 2.12498C4.15634 2.12498 4.15931 2.12498 4.16227 2.12498C4.16523 2.12498 4.16818 2.12498 4.17114 2.12498C4.1741 2.12498 4.17705 2.12498 4.18 2.12498C4.18295 2.12498 4.1859 2.12498 4.18884 2.12498C4.19179 2.12498 4.19473 2.12498 4.19767 2.12498C4.20061 2.12498 4.20355 2.12498 4.20649 2.12498C4.20942 2.12498 4.21236 2.12498 4.21529 2.12498C4.21822 2.12498 4.22115 2.12498 4.22407 2.12498C4.227 2.12498 4.22992 2.12498 4.23285 2.12498C4.23577 2.12498 4.23869 2.12498 4.2416 2.12498C4.24452 2.12498 4.24744 2.12498 4.25035 2.12498C4.25326 2.12498 4.25617 2.12498 4.25908 2.12498C4.26199 2.12498 4.26489 2.12498 4.26779 2.12498C4.2707 2.12498 4.2736 2.12498 4.2765 2.12498C4.2794 2.12498 4.28229 2.12498 4.28519 2.12498C4.28808 2.12498 4.29097 2.12498 4.29386 2.12498C4.29675 2.12498 4.29964 2.12498 4.30252 2.12498C4.30541 2.12498 4.30829 2.12498 4.31117 2.12498C4.31405 2.12498 4.31693 2.12498 4.3198 2.12498C4.32268 2.12498 4.32555 2.12498 4.32842 2.12498C4.3313 2.12498 4.33416 2.12498 4.33703 2.12498C4.3399 2.12498 4.34276 2.12498 4.34562 2.12498C4.34849 2.12498 4.35135 2.12498 4.3542 2.12498C4.35706 2.12498 4.35992 2.12498 4.36277 2.12498C4.36563 2.12498 4.36848 2.12498 4.37133 2.12498C4.37417 2.12498 4.37702 2.12498 4.37987 2.12498C4.38271 2.12498 4.38555 2.12498 4.38839 2.12498C4.39123 2.12498 4.39407 2.12498 4.39691 2.12498C4.39974 2.12498 4.40258 2.12498 4.40541 2.12498C4.40824 2.12498 4.41107 2.12498 4.4139 2.12498C4.41673 2.12498 4.41955 2.12498 4.42238 2.12498C4.4252 2.12498 4.42802 2.12498 4.43084 2.12498C4.43366 2.12498 4.43647 2.12498 4.43929 2.12498C4.4421 2.12498 4.44492 2.12498 4.44773 2.12498C4.45054 2.12498 4.45335 2.12498 4.45615 2.12498C4.45896 2.12498 4.46176 2.12498 4.46457 2.12498C4.46737 2.12498 4.47017 2.12498 4.47297 2.12498C4.47576 2.12498 4.47856 2.12498 4.48135 2.12498C4.48415 2.12498 4.48694 2.12498 4.48973 2.12498C4.49252 2.12498 4.49531 2.12498 4.49809 2.12498C4.50088 2.12498 4.50366 2.12498 4.50644 2.12498C4.50923 2.12498 4.512 2.12498 4.51478 2.12498C4.51756 2.12498 4.52034 2.12498 4.52311 2.12498C4.52588 2.12498 4.52865 2.12498 4.53142 2.12498C4.53419 2.12498 4.53696 2.12498 4.53973 2.12498C4.54249 2.12498 4.54526 2.12498 4.54802 2.12498C4.55078 2.12498 4.55354 2.12498 4.5563 2.12498C4.55906 2.12498 4.56181 2.12498 4.56456 2.12498C4.56732 2.12498 4.57007 2.12498 4.57282 2.12498C4.57557 2.12498 4.57832 2.12498 4.58106 2.12498C4.58381 2.12498 4.58655 2.12498 4.5893 2.12498C4.59204 2.12498 4.59478 2.12498 4.59752 2.12498C4.60026 2.12498 4.60299 2.12498 4.60573 2.12498C4.60846 2.12498 4.61119 2.12498 4.61392 2.12498C4.61666 2.12498 4.61938 2.12498 4.62211 2.12498C4.62484 2.12498 4.62756 2.12498 4.63029 2.12498C4.63301 2.12498 4.63573 2.12498 4.63845 2.12498C4.64117 2.12498 4.64389 2.12498 4.6466 2.12498C4.64932 2.12498 4.65203 2.12498 4.65475 2.12498C4.65746 2.12498 4.66017 2.12498 4.66288 2.12498C4.66559 2.12498 4.66829 2.12498 4.671 2.12498C4.6737 2.12498 4.6764 2.12498 4.67911 2.12498C4.68181 2.12498 4.68451 2.12498 4.6872 2.12498C4.6899 2.12498 4.6926 2.12498 4.69529 2.12498C4.69798 2.12498 4.70068 2.12498 4.70337 2.12498C4.70606 2.12498 4.70875 2.12498 4.71143 2.12498C4.71412 2.12498 4.7168 2.12498 4.71949 2.12498C4.72217 2.12498 4.72485 2.12498 4.72753 2.12498C4.73021 2.12498 4.73289 2.12498 4.73557 2.12498C4.73824 2.12498 4.74092 2.12498 4.74359 2.12498C4.74626 2.12498 4.74893 2.12498 4.7516 2.12498C4.75427 2.12498 4.75694 2.12498 4.75961 2.12498C4.76227 2.12498 4.76494 2.12498 4.7676 2.12498C4.77026 2.12498 4.77292 2.12498 4.77558 2.12498C4.77824 2.12498 4.7809 2.12498 4.78356 2.12498C4.78621 2.12498 4.78887 2.12498 4.79152 2.12498C4.79417 2.12498 4.79682 2.12498 4.79947 2.12498C4.80212 2.12498 4.80477 2.12498 4.80741 2.12498C4.81006 2.12498 4.8127 2.12498 4.81535 2.12498C4.81799 2.12498 4.82063 2.12498 4.82327 2.12498C4.82591 2.12498 4.82854 2.12498 4.83118 2.12498C4.83382 2.12498 4.83645 2.12498 4.83908 2.12498C4.84172 2.12498 4.84435 2.12498 4.84698 2.12498C4.84961 2.12498 4.85224 2.12498 4.85486 2.12498C4.85749 2.12498 4.86011 2.12498 4.86274 2.12498C4.86536 2.12498 4.86798 2.12498 4.8706 2.12498C4.87322 2.12498 4.87584 2.12498 4.87846 2.12498C4.88107 2.12498 4.88369 2.12498 4.8863 2.12498C4.88892 2.12498 4.89153 2.12498 4.89414 2.12498C4.89675 2.12498 4.89936 2.12498 4.90197 2.12498C4.90458 2.12498 4.90718 2.12498 4.90979 2.12498C4.91239 2.12498 4.915 2.12498 4.9176 2.12498C4.9202 2.12498 4.9228 2.12498 4.9254 2.12498C4.928 2.12498 4.93059 2.12498 4.93319 2.12498C4.93579 2.12498 4.93838 2.12498 4.94097 2.12498C4.94357 2.12498 4.94616 2.12498 4.94875 2.12498C4.95134 2.12498 4.95393 2.12498 4.95651 2.12498C4.9591 2.12498 4.96169 2.12498 4.96427 2.12498C4.96685 2.12498 4.96944 2.12498 4.97202 2.12498C4.9746 2.12498 4.97718 2.12498 4.97976 2.12498C4.98234 2.12498 4.98491 2.12498 4.98749 2.12498C4.99006 2.12498 4.99264 2.12498 4.99521 2.12498C4.99778 2.12498 5.00035 2.12498 5.00292 2.12498C5.00549 2.12498 5.00806 2.12498 5.01063 2.12498C5.0132 2.12498 5.01576 2.12498 5.01833 2.12498C5.02089 2.12498 5.02345 2.12498 5.02602 2.12498C5.02858 2.12498 5.03114 2.12498 5.0337 2.12498C5.03626 2.12498 5.03881 2.12498 5.04137 2.12498C5.04393 2.12498 5.04648 2.12498 5.04903 2.12498C5.05159 2.12498 5.05414 2.12498 5.05669 2.12498C5.05924 2.12498 5.06179 2.12498 5.06434 2.12498C5.06689 2.12498 5.06944 2.12498 5.07198 2.12498C5.07453 2.12498 5.07707 2.12498 5.07961 2.12498C5.08216 2.12498 5.0847 2.12498 5.08724 2.12498C5.08978 2.12498 5.09232 2.12498 5.09486 2.12498C5.0974 2.12498 5.09993 2.12498 5.10247 2.12498C5.105 2.12498 5.10754 2.12498 5.11007 2.12498C5.1126 2.12498 5.11513 2.12498 5.11767 2.12498C5.1202 2.12498 5.12273 2.12498 5.12525 2.12498C5.12778 2.12498 5.13031 2.12498 5.13283 2.12498C5.13536 2.12498 5.13788 2.12498 5.14041 2.12498C5.14293 2.12498 5.14545 2.12498 5.14797 2.12498C5.15049 2.12498 5.15301 2.12498 5.15553 2.12498C5.15805 2.12498 5.16057 2.12498 5.16308 2.12498C5.1656 2.12498 5.16811 2.12498 5.17063 2.12498C5.17314 2.12498 5.17565 2.12498 5.17816 2.12498C5.18068 2.12498 5.18319 2.12498 5.1857 2.12498C5.1882 2.12498 5.19071 2.12498 5.19322 2.12498C5.19573 2.12498 5.19823 2.12498 5.20074 2.12498C5.20324 2.12498 5.20574 2.12498 5.20825 2.12498C5.21075 2.12498 5.21325 2.12498 5.21575 2.12498C5.21825 2.12498 5.22075 2.12498 5.22325 2.12498C5.22574 2.12498 5.22824 2.12498 5.23074 2.12498C5.23323 2.12498 5.23573 2.12498 5.23822 2.12498C5.24071 2.12498 5.24321 2.12498 5.2457 2.12498C5.24819 2.12498 5.25068 2.12498 5.25317 2.12498C5.25566 2.12498 5.25815 2.12498 5.26063 2.12498C5.26312 2.12498 5.26561 2.12498 5.26809 2.12498C5.27058 2.12498 5.27306 2.12498 5.27554 2.12498C5.27803 2.12498 5.28051 2.12498 5.28299 2.12498C5.28547 2.12498 5.28795 2.12498 5.29043 2.12498C5.29291 2.12498 5.29539 2.12498 5.29786 2.12498C5.30034 2.12498 5.30282 2.12498 5.30529 2.12498C5.30777 2.12498 5.31024 2.12498 5.31271 2.12498C5.31519 2.12498 5.31766 2.12498 5.32013 2.12498C5.3226 2.12498 5.32507 2.12498 5.32754 2.12498C5.33001 2.12498 5.33248 2.12498 5.33495 2.12498C5.33741 2.12498 5.33988 2.12498 5.34234 2.12498C5.34481 2.12498 5.34727 2.12498 5.34974 2.12498C5.3522 2.12498 5.35466 2.12498 5.35713 2.12498C5.35959 2.12498 5.36205 2.12498 5.36451 2.12498C5.36697 2.12498 5.36943 2.12498 5.37189 2.12498C5.37434 2.12498 5.3768 2.12498 5.37926 2.12498C5.38171 2.12498 5.38417 2.12498 5.38662 2.12498C5.38908 2.12498 5.39153 2.12498 5.39399 2.12498C5.39644 2.12498 5.39889 2.12498 5.40134 2.12498C5.40379 2.12498 5.40624 2.12498 5.40869 2.12498C5.41114 2.12498 5.41359 2.12498 5.41604 2.12498C5.41849 2.12498 5.42093 2.12498 5.42338 2.12498C5.42583 2.12498 5.42827 2.12498 5.43072 2.12498C5.43316 2.12498 5.43561 2.12498 5.43805 2.12498C5.44049 2.12498 5.44293 2.12498 5.44537 2.12498C5.44782 2.12498 5.45026 2.12498 5.4527 2.12498C5.45514 2.12498 5.45758 2.12498 5.46001 2.12498C5.46245 2.12498 5.46489 2.12498 5.46733 2.12498C5.46976 2.12498 5.4722 2.12498 5.47463 2.12498C5.47707 2.12498 5.4795 2.12498 5.48194 2.12498C5.48437 2.12498 5.4868 2.12498 5.48924 2.12498C5.49167 2.12498 5.4941 2.12498 5.49653 2.12498C5.49896 2.12498 5.50139 2.12498 5.50382 2.12498C5.50625 2.12498 5.50868 2.12498 5.51111 2.12498C5.51354 2.12498 5.51596 2.12498 5.51839 2.12498C5.52082 2.12498 5.52324 2.12498 5.52567 2.12498C5.52809 2.12498 5.53052 2.12498 5.53294 2.12498C5.53537 2.12498 5.53779 2.12498 5.54021 2.12498C5.54263 2.12498 5.54506 2.12498 5.54748 2.12498C5.5499 2.12498 5.55232 2.12498 5.55474 2.12498C5.55716 2.12498 5.55958 2.12498 5.562 2.12498C5.56442 2.12498 5.56684 2.12498 5.56925 2.12498C5.57167 2.12498 5.57409 2.12498 5.5765 2.12498C5.57892 2.12498 5.58134 2.12498 5.58375 2.12498C5.58617 2.12498 5.58858 2.12498 5.591 2.12498C5.59341 2.12498 5.59582 2.12498 5.59824 2.12498C5.60065 2.12498 5.60306 2.12498 5.60547 2.12498C5.60788 2.12498 5.6103 2.12498 5.61271 2.12498C5.61512 2.12498 5.61753 2.12498 5.61994 2.12498C5.62235 2.12498 5.62475 2.12498 5.62716 2.12498C5.62957 2.12498 5.63198 2.12498 5.63439 2.12498C5.63679 2.12498 5.6392 2.12498 5.64161 2.12498C5.64401 2.12498 5.64642 2.12498 5.64882 2.12498C5.65123 2.12498 5.65363 2.12498 5.65604 2.12498C5.65844 2.12498 5.66085 2.12498 5.66325 2.12498C5.66565 2.12498 5.66806 2.12498 5.67046 2.12498C5.67286 2.12498 5.67526 2.12498 5.67766 2.12498C5.68007 2.12498 5.68247 2.12498 5.68487 2.12498C5.68727 2.12498 5.68967 2.12498 5.69207 2.12498C5.69447 2.12498 5.69687 2.12498 5.69927 2.12498C5.70166 2.12498 5.70406 2.12498 5.70646 2.12498C5.70886 2.12498 5.71126 2.12498 5.71365 2.12498C5.71605 2.12498 5.71845 2.12498 5.72084 2.12498C5.72324 2.12498 5.72564 2.12498 5.72803 2.12498C5.73043 2.12498 5.73282 2.12498 5.73522 2.12498C5.73761 2.12498 5.74001 2.12498 5.7424 2.12498C5.74479 2.12498 5.74719 2.12498 5.74958 2.12498C5.75197 2.12498 5.75437 2.12498 5.75676 2.12498C5.75915 2.12498 5.76154 2.12498 5.76394 2.12498C5.76633 2.12498 5.76872 2.12498 5.77111 2.12498C5.7735 2.12498 5.77589 2.12498 5.77828 2.12498C5.78067 2.12498 5.78307 2.12498 5.78546 2.12498C5.78785 2.12498 5.79023 2.12498 5.79262 2.12498C5.79501 2.12498 5.7974 2.12498 5.79979 2.12498C5.80218 2.12498 5.80457 2.12498 5.80696 2.12498C5.80935 2.12498 5.81173 2.12498 5.81412 2.12498C5.81651 2.12498 5.8189 2.12498 5.82128 2.12498C5.82367 2.12498 5.82606 2.12498 5.82844 2.12498C5.83083 2.12498 5.83322 2.12498 5.8356 2.12498C5.83799 2.12498 5.84037 2.12498 5.84276 2.12498C5.84515 2.12498 5.84753 2.12498 5.84992 2.12498C5.8523 2.12498 5.85469 2.12498 5.85707 2.12498C5.85946 2.12498 5.86184 2.12498 5.86423 2.12498C5.86661 2.12498 5.869 2.12498 5.87138 2.12498C5.87376 2.12498 5.87615 2.12498 5.87853 2.12498C5.88091 2.12498 5.8833 2.12498 5.88568 2.12498C5.88806 2.12498 5.89045 2.12498 5.89283 2.12498C5.89521 2.12498 5.8976 2.12498 5.89998 2.12498C5.90236 2.12498 5.90475 2.12498 5.90713 2.12498C5.90951 2.12498 5.91189 2.12498 5.91427 2.12498C5.91666 2.12498 5.91904 2.12498 5.92142 2.12498C5.9238 2.12498 5.92619 2.12498 5.92857 2.12498C5.93095 2.12498 5.93333 2.12498 5.93571 2.12498C5.93809 2.12498 5.94047 2.12498 5.94286 2.12498C5.94524 2.12498 5.94762 2.12498 5.95 2.12498C5.95238 2.12498 5.95476 2.12498 5.95714 2.12498C5.95953 2.12498 5.96191 2.12498 5.96429 2.12498C5.96667 2.12498 5.96905 2.12498 5.97143 2.12498C5.97381 2.12498 5.97619 2.12498 5.97857 2.12498C5.98095 2.12498 5.98333 2.12498 5.98572 2.12498C5.9881 2.12498 5.99048 2.12498 5.99286 2.12498C5.99524 2.12498 5.99762 2.12498 6 2.12498C6.00238 2.12498 6.00476 2.12498 6.00714 2.12498C6.00952 2.12498 6.0119 2.12498 6.01428 2.12498C6.01667 2.12498 6.01905 2.12498 6.02143 2.12498C6.02381 2.12498 6.02619 2.12498 6.02857 2.12498C6.03095 2.12498 6.03333 2.12498 6.03571 2.12498C6.03809 2.12498 6.04047 2.12498 6.04286 2.12498C6.04524 2.12498 6.04762 2.12498 6.05 2.12498C6.05238 2.12498 6.05476 2.12498 6.05714 2.12498C6.05953 2.12498 6.06191 2.12498 6.06429 2.12498C6.06667 2.12498 6.06905 2.12498 6.07143 2.12498C6.07381 2.12498 6.0762 2.12498 6.07858 2.12498C6.08096 2.12498 6.08334 2.12498 6.08573 2.12498C6.08811 2.12498 6.09049 2.12498 6.09287 2.12498C6.09525 2.12498 6.09764 2.12498 6.10002 2.12498C6.1024 2.12498 6.10479 2.12498 6.10717 2.12498C6.10955 2.12498 6.11194 2.12498 6.11432 2.12498C6.1167 2.12498 6.11909 2.12498 6.12147 2.12498C6.12385 2.12498 6.12624 2.12498 6.12862 2.12498C6.131 2.12498 6.13339 2.12498 6.13577 2.12498C6.13816 2.12498 6.14054 2.12498 6.14293 2.12498C6.14531 2.12498 6.1477 2.12498 6.15008 2.12498C6.15247 2.12498 6.15485 2.12498 6.15724 2.12498C6.15963 2.12498 6.16201 2.12498 6.1644 2.12498C6.16678 2.12498 6.16917 2.12498 6.17156 2.12498C6.17394 2.12498 6.17633 2.12498 6.17872 2.12498C6.1811 2.12498 6.18349 2.12498 6.18588 2.12498C6.18827 2.12498 6.19065 2.12498 6.19304 2.12498C6.19543 2.12498 6.19782 2.12498 6.20021 2.12498C6.2026 2.12498 6.20499 2.12498 6.20738 2.12498C6.20977 2.12498 6.21215 2.12498 6.21454 2.12498C6.21693 2.12498 6.21933 2.12498 6.22172 2.12498C6.22411 2.12498 6.2265 2.12498 6.22889 2.12498C6.23128 2.12498 6.23367 2.12498 6.23606 2.12498C6.23846 2.12498 6.24085 2.12498 6.24324 2.12498C6.24563 2.12498 6.24803 2.12498 6.25042 2.12498C6.25281 2.12498 6.25521 2.12498 6.2576 2.12498C6.25999 2.12498 6.26239 2.12498 6.26478 2.12498C6.26718 2.12498 6.26957 2.12498 6.27197 2.12498C6.27436 2.12498 6.27676 2.12498 6.27916 2.12498C6.28155 2.12498 6.28395 2.12498 6.28635 2.12498C6.28874 2.12498 6.29114 2.12498 6.29354 2.12498C6.29594 2.12498 6.29834 2.12498 6.30073 2.12498C6.30313 2.12498 6.30553 2.12498 6.30793 2.12498C6.31033 2.12498 6.31273 2.12498 6.31513 2.12498C6.31753 2.12498 6.31993 2.12498 6.32234 2.12498C6.32474 2.12498 6.32714 2.12498 6.32954 2.12498C6.33194 2.12498 6.33435 2.12498 6.33675 2.12498C6.33915 2.12498 6.34156 2.12498 6.34396 2.12498C6.34637 2.12498 6.34877 2.12498 6.35118 2.12498C6.35358 2.12498 6.35599 2.12498 6.35839 2.12498C6.3608 2.12498 6.36321 2.12498 6.36561 2.12498C6.36802 2.12498 6.37043 2.12498 6.37284 2.12498C6.37525 2.12498 6.37765 2.12498 6.38006 2.12498C6.38247 2.12498 6.38488 2.12498 6.38729 2.12498C6.3897 2.12498 6.39212 2.12498 6.39453 2.12498C6.39694 2.12498 6.39935 2.12498 6.40176 2.12498C6.40418 2.12498 6.40659 2.12498 6.409 2.12498C6.41142 2.12498 6.41383 2.12498 6.41625 2.12498C6.41866 2.12498 6.42108 2.12498 6.4235 2.12498C6.42591 2.12498 6.42833 2.12498 6.43075 2.12498C6.43316 2.12498 6.43558 2.12498 6.438 2.12498C6.44042 2.12498 6.44284 2.12498 6.44526 2.12498C6.44768 2.12498 6.4501 2.12498 6.45252 2.12498C6.45494 2.12498 6.45737 2.12498 6.45979 2.12498C6.46221 2.12498 6.46463 2.12498 6.46706 2.12498C6.46948 2.12498 6.47191 2.12498 6.47433 2.12498C6.47676 2.12498 6.47918 2.12498 6.48161 2.12498C6.48404 2.12498 6.48646 2.12498 6.48889 2.12498C6.49132 2.12498 6.49375 2.12498 6.49618 2.12498C6.49861 2.12498 6.50104 2.12498 6.50347 2.12498C6.5059 2.12498 6.50833 2.12498 6.51076 2.12498C6.5132 2.12498 6.51563 2.12498 6.51806 2.12498C6.5205 2.12498 6.52293 2.12498 6.52537 2.12498C6.5278 2.12498 6.53024 2.12498 6.53267 2.12498C6.53511 2.12498 6.53755 2.12498 6.53999 2.12498C6.54242 2.12498 6.54486 2.12498 6.5473 2.12498C6.54974 2.12498 6.55218 2.12498 6.55463 2.12498C6.55707 2.12498 6.55951 2.12498 6.56195 2.12498C6.56439 2.12498 6.56684 2.12498 6.56928 2.12498C6.57173 2.12498 6.57417 2.12498 6.57662 2.12498C6.57907 2.12498 6.58151 2.12498 6.58396 2.12498C6.58641 2.12498 6.58886 2.12498 6.59131 2.12498C6.59376 2.12498 6.59621 2.12498 6.59866 2.12498C6.60111 2.12498 6.60356 2.12498 6.60601 2.12498C6.60847 2.12498 6.61092 2.12498 6.61338 2.12498C6.61583 2.12498 6.61829 2.12498 6.62074 2.12498C6.6232 2.12498 6.62566 2.12498 6.62811 2.12498C6.63057 2.12498 6.63303 2.12498 6.63549 2.12498C6.63795 2.12498 6.64041 2.12498 6.64287 2.12498C6.64534 2.12498 6.6478 2.12498 6.65026 2.12498C6.65273 2.12498 6.65519 2.12498 6.65766 2.12498C6.66012 2.12498 6.66259 2.12498 6.66505 2.12498C6.66752 2.12498 6.66999 2.12498 6.67246 2.12498C6.67493 2.12498 6.6774 2.12498 6.67987 2.12498C6.68234 2.12498 6.68481 2.12498 6.68729 2.12498C6.68976 2.12498 6.69223 2.12498 6.69471 2.12498C6.69718 2.12498 6.69966 2.12498 6.70214 2.12498C6.70461 2.12498 6.70709 2.12498 6.70957 2.12498C6.71205 2.12498 6.71453 2.12498 6.71701 2.12498C6.71949 2.12498 6.72197 2.12498 6.72446 2.12498C6.72694 2.12498 6.72942 2.12498 6.73191 2.12498C6.73439 2.12498 6.73688 2.12498 6.73937 2.12498C6.74185 2.12498 6.74434 2.12498 6.74683 2.12498C6.74932 2.12498 6.75181 2.12498 6.7543 2.12498C6.75679 2.12498 6.75929 2.12498 6.76178 2.12498C6.76427 2.12498 6.76677 2.12498 6.76926 2.12498C6.77176 2.12498 6.77426 2.12498 6.77675 2.12498C6.77925 2.12498 6.78175 2.12498 6.78425 2.12498C6.78675 2.12498 6.78925 2.12498 6.79175 2.12498C6.79426 2.12498 6.79676 2.12498 6.79926 2.12498C6.80177 2.12498 6.80427 2.12498 6.80678 2.12498C6.80929 2.12498 6.8118 2.12498 6.8143 2.12498C6.81681 2.12498 6.81932 2.12498 6.82184 2.12498C6.82435 2.12498 6.82686 2.12498 6.82937 2.12498C6.83189 2.12498 6.8344 2.12498 6.83692 2.12498C6.83943 2.12498 6.84195 2.12498 6.84447 2.12498C6.84699 2.12498 6.84951 2.12498 6.85203 2.12498C6.85455 2.12498 6.85707 2.12498 6.85959 2.12498C6.86212 2.12498 6.86464 2.12498 6.86717 2.12498C6.86969 2.12498 6.87222 2.12498 6.87475 2.12498C6.87727 2.12498 6.8798 2.12498 6.88233 2.12498C6.88486 2.12498 6.8874 2.12498 6.88993 2.12498C6.89246 2.12498 6.895 2.12498 6.89753 2.12498C6.90007 2.12498 6.9026 2.12498 6.90514 2.12498C6.90768 2.12498 6.91022 2.12498 6.91276 2.12498C6.9153 2.12498 6.91784 2.12498 6.92039 2.12498C6.92293 2.12498 6.92547 2.12498 6.92802 2.12498C6.93056 2.12498 6.93311 2.12498 6.93566 2.12498C6.93821 2.12498 6.94076 2.12498 6.94331 2.12498C6.94586 2.12498 6.94841 2.12498 6.95097 2.12498C6.95352 2.12498 6.95607 2.12498 6.95863 2.12498C6.96119 2.12498 6.96374 2.12498 6.9663 2.12498C6.96886 2.12498 6.97142 2.12498 6.97398 2.12498C6.97655 2.12498 6.97911 2.12498 6.98167 2.12498C6.98424 2.12498 6.9868 2.12498 6.98937 2.12498C6.99194 2.12498 6.99451 2.12498 6.99708 2.12498C6.99965 2.12498 7.00222 2.12498 7.00479 2.12498C7.00736 2.12498 7.00994 2.12498 7.01251 2.12498C7.01509 2.12498 7.01766 2.12498 7.02024 2.12498C7.02282 2.12498 7.0254 2.12498 7.02798 2.12498C7.03056 2.12498 7.03315 2.12498 7.03573 2.12498C7.03831 2.12498 7.0409 2.12498 7.04349 2.12498C7.04607 2.12498 7.04866 2.12498 7.05125 2.12498C7.05384 2.12498 7.05643 2.12498 7.05903 2.12498C7.06162 2.12498 7.06421 2.12498 7.06681 2.12498C7.06941 2.12498 7.072 2.12498 7.0746 2.12498C7.0772 2.12498 7.0798 2.12498 7.0824 2.12498C7.085 2.12498 7.08761 2.12498 7.09021 2.12498C7.09282 2.12498 7.09542 2.12498 7.09803 2.12498C7.10064 2.12498 7.10325 2.12498 7.10586 2.12498C7.10847 2.12498 7.11108 2.12498 7.1137 2.12498C7.11631 2.12498 7.11893 2.12498 7.12154 2.12498C7.12416 2.12498 7.12678 2.12498 7.1294 2.12498C7.13202 2.12498 7.13464 2.12498 7.13726 2.12498C7.13989 2.12498 7.14251 2.12498 7.14514 2.12498C7.14776 2.12498 7.15039 2.12498 7.15302 2.12498C7.15565 2.12498 7.15828 2.12498 7.16092 2.12498C7.16355 2.12498 7.16618 2.12498 7.16882 2.12498C7.17145 2.12498 7.17409 2.12498 7.17673 2.12498C7.17937 2.12498 7.18201 2.12498 7.18465 2.12498C7.1873 2.12498 7.18994 2.12498 7.19259 2.12498C7.19523 2.12498 7.19788 2.12498 7.20053 2.12498C7.20318 2.12498 7.20583 2.12498 7.20848 2.12498C7.21113 2.12498 7.21379 2.12498 7.21644 2.12498C7.2191 2.12498 7.22176 2.12498 7.22442 2.12498C7.22708 2.12498 7.22974 2.12498 7.2324 2.12498C7.23506 2.12498 7.23773 2.12498 7.24039 2.12498C7.24306 2.12498 7.24573 2.12498 7.2484 2.12498C7.25107 2.12498 7.25374 2.12498 7.25641 2.12498C7.25908 2.12498 7.26176 2.12498 7.26443 2.12498C7.26711 2.12498 7.26979 2.12498 7.27247 2.12498C7.27515 2.12498 7.27783 2.12498 7.28051 2.12498C7.2832 2.12498 7.28588 2.12498 7.28857 2.12498C7.29125 2.12498 7.29394 2.12498 7.29663 2.12498C7.29932 2.12498 7.30202 2.12498 7.30471 2.12498C7.3074 2.12498 7.3101 2.12498 7.3128 2.12498C7.31549 2.12498 7.31819 2.12498 7.32089 2.12498C7.3236 2.12498 7.3263 2.12498 7.329 2.12498C7.33171 2.12498 7.33441 2.12498 7.33712 2.12498C7.33983 2.12498 7.34254 2.12498 7.34525 2.12498C7.34797 2.12498 7.35068 2.12498 7.3534 2.12498C7.35611 2.12498 7.35883 2.12498 7.36155 2.12498C7.36427 2.12498 7.36699 2.12498 7.36971 2.12498C7.37244 2.12498 7.37516 2.12498 7.37789 2.12498C7.38062 2.12498 7.38334 2.12498 7.38608 2.12498C7.38881 2.12498 7.39154 2.12498 7.39427 2.12498C7.39701 2.12498 7.39974 2.12498 7.40248 2.12498C7.40522 2.12498 7.40796 2.12498 7.4107 2.12498C7.41345 2.12498 7.41619 2.12498 7.41894 2.12498C7.42168 2.12498 7.42443 2.12498 7.42718 2.12498C7.42993 2.12498 7.43268 2.12498 7.43544 2.12498C7.43819 2.12498 7.44094 2.12498 7.4437 2.12498C7.44646 2.12498 7.44922 2.12498 7.45198 2.12498C7.45474 2.12498 7.45751 2.12498 7.46027 2.12498C7.46304 2.12498 7.46581 2.12498 7.46858 2.12498C7.47135 2.12498 7.47412 2.12498 7.47689 2.12498C7.47966 2.12498 7.48244 2.12498 7.48522 2.12498C7.488 2.12498 7.49077 2.12498 7.49356 2.12498C7.49634 2.12498 7.49912 2.12498 7.50191 2.12498C7.50469 2.12498 7.50748 2.12498 7.51027 2.12498C7.51306 2.12498 7.51585 2.12498 7.51865 2.12498C7.52144 2.12498 7.52424 2.12498 7.52703 2.12498C7.52983 2.12498 7.53263 2.12498 7.53543 2.12498C7.53824 2.12498 7.54104 2.12498 7.54385 2.12498C7.54665 2.12498 7.54946 2.12498 7.55227 2.12498C7.55508 2.12498 7.5579 2.12498 7.56071 2.12498C7.56353 2.12498 7.56634 2.12498 7.56916 2.12498C7.57198 2.12498 7.5748 2.12498 7.57762 2.12498C7.58045 2.12498 7.58327 2.12498 7.5861 2.12498C7.58893 2.12498 7.59176 2.12498 7.59459 2.12498C7.59742 2.12498 7.60026 2.12498 7.60309 2.12498C7.60593 2.12498 7.60877 2.12498 7.61161 2.12498C7.61445 2.12498 7.61729 2.12498 7.62013 2.12498C7.62298 2.12498 7.62583 2.12498 7.62867 2.12498C7.63152 2.12498 7.63437 2.12498 7.63723 2.12498C7.64008 2.12498 7.64294 2.12498 7.6458 2.12498C7.64865 2.12498 7.65151 2.12498 7.65438 2.12498C7.65724 2.12498 7.6601 2.12498 7.66297 2.12498C7.66584 2.12498 7.6687 2.12498 7.67158 2.12498C7.67445 2.12498 7.67732 2.12498 7.6802 2.12498C7.68307 2.12498 7.68595 2.12498 7.68883 2.12498C7.69171 2.12498 7.69459 2.12498 7.69748 2.12498C7.70036 2.12498 7.70325 2.12498 7.70614 2.12498C7.70903 2.12498 7.71192 2.12498 7.71481 2.12498C7.71771 2.12498 7.7206 2.12498 7.7235 2.12498C7.7264 2.12498 7.7293 2.12498 7.7322 2.12498C7.73511 2.12498 7.73801 2.12498 7.74092 2.12498C7.74383 2.12498 7.74674 2.12498 7.74965 2.12498C7.75256 2.12498 7.75548 2.12498 7.7584 2.12498C7.76131 2.12498 7.76423 2.12498 7.76715 2.12498C7.77008 2.12498 7.773 2.12498 7.77593 2.12498C7.77885 2.12498 7.78178 2.12498 7.78471 2.12498C7.78764 2.12498 7.79058 2.12498 7.79351 2.12498C7.79645 2.12498 7.79939 2.12498 7.80233 2.12498C7.80527 2.12498 7.80821 2.12498 7.81116 2.12498C7.8141 2.12498 7.81705 2.12498 7.82 2.12498C7.82295 2.12498 7.8259 2.12498 7.82886 2.12498C7.83181 2.12498 7.83477 2.12498 7.83773 2.12498C7.84069 2.12498 7.84366 2.12498 7.84662 2.12498C7.84959 2.12498 7.85255 2.12498 7.85552 2.12498C7.85849 2.12498 7.86146 2.12498 7.86444 2.12498C7.86741 2.12498 7.87039 2.12498 7.87337 2.12498C7.87635 2.12498 7.87933 2.12498 7.88232 2.12498C7.8853 2.12498 7.88829 2.12498 7.89128 2.12498C7.89427 2.12498 7.89726 2.12498 7.90025 2.12498C7.90325 2.12498 7.90625 2.12498 7.90925 2.12498C7.91225 2.12498 7.91525 2.12498 7.91825 2.12498C7.92126 2.12498 7.92426 2.12498 7.92727 2.12498C7.93028 2.12498 7.9333 2.12498 7.93631 2.12498C7.93933 2.12498 7.94234 2.12498 7.94536 2.12498C7.94838 2.12498 7.95141 2.12498 7.95443 2.12498C7.95746 2.12498 7.96048 2.12498 7.96351 2.12498C7.96654 2.12498 7.96958 2.12498 7.97261 2.12498C7.97565 2.12498 7.97868 2.12498 7.98173 2.12498C7.98477 2.12498 7.98781 2.12498 7.99085 2.12498C7.9939 2.12498 7.99695 2.12498 8 2.12498V1.37498C7.99695 1.37498 7.9939 1.37498 7.99085 1.37498C7.98781 1.37498 7.98477 1.37498 7.98173 1.37498C7.97868 1.37498 7.97565 1.37498 7.97261 1.37498C7.96958 1.37498 7.96654 1.37498 7.96351 1.37498C7.96048 1.37498 7.95746 1.37498 7.95443 1.37498C7.95141 1.37498 7.94838 1.37498 7.94536 1.37498C7.94234 1.37498 7.93933 1.37498 7.93631 1.37498C7.9333 1.37498 7.93028 1.37498 7.92727 1.37498C7.92426 1.37498 7.92126 1.37498 7.91825 1.37498C7.91525 1.37498 7.91225 1.37498 7.90925 1.37498C7.90625 1.37498 7.90325 1.37498 7.90025 1.37498C7.89726 1.37498 7.89427 1.37498 7.89128 1.37498C7.88829 1.37498 7.8853 1.37498 7.88232 1.37498C7.87933 1.37498 7.87635 1.37498 7.87337 1.37498C7.87039 1.37498 7.86741 1.37498 7.86444 1.37498C7.86146 1.37498 7.85849 1.37498 7.85552 1.37498C7.85255 1.37498 7.84959 1.37498 7.84662 1.37498C7.84366 1.37498 7.84069 1.37498 7.83773 1.37498C7.83477 1.37498 7.83181 1.37498 7.82886 1.37498C7.8259 1.37498 7.82295 1.37498 7.82 1.37498C7.81705 1.37498 7.8141 1.37498 7.81116 1.37498C7.80821 1.37498 7.80527 1.37498 7.80233 1.37498C7.79939 1.37498 7.79645 1.37498 7.79351 1.37498C7.79058 1.37498 7.78764 1.37498 7.78471 1.37498C7.78178 1.37498 7.77885 1.37498 7.77593 1.37498C7.773 1.37498 7.77008 1.37498 7.76715 1.37498C7.76423 1.37498 7.76131 1.37498 7.7584 1.37498C7.75548 1.37498 7.75256 1.37498 7.74965 1.37498C7.74674 1.37498 7.74383 1.37498 7.74092 1.37498C7.73801 1.37498 7.73511 1.37498 7.7322 1.37498C7.7293 1.37498 7.7264 1.37498 7.7235 1.37498C7.7206 1.37498 7.71771 1.37498 7.71481 1.37498C7.71192 1.37498 7.70903 1.37498 7.70614 1.37498C7.70325 1.37498 7.70036 1.37498 7.69748 1.37498C7.69459 1.37498 7.69171 1.37498 7.68883 1.37498C7.68595 1.37498 7.68307 1.37498 7.6802 1.37498C7.67732 1.37498 7.67445 1.37498 7.67158 1.37498C7.6687 1.37498 7.66584 1.37498 7.66297 1.37498C7.6601 1.37498 7.65724 1.37498 7.65438 1.37498C7.65151 1.37498 7.64865 1.37498 7.6458 1.37498C7.64294 1.37498 7.64008 1.37498 7.63723 1.37498C7.63437 1.37498 7.63152 1.37498 7.62867 1.37498C7.62583 1.37498 7.62298 1.37498 7.62013 1.37498C7.61729 1.37498 7.61445 1.37498 7.61161 1.37498C7.60877 1.37498 7.60593 1.37498 7.60309 1.37498C7.60026 1.37498 7.59742 1.37498 7.59459 1.37498C7.59176 1.37498 7.58893 1.37498 7.5861 1.37498C7.58327 1.37498 7.58045 1.37498 7.57762 1.37498C7.5748 1.37498 7.57198 1.37498 7.56916 1.37498C7.56634 1.37498 7.56353 1.37498 7.56071 1.37498C7.5579 1.37498 7.55508 1.37498 7.55227 1.37498C7.54946 1.37498 7.54665 1.37498 7.54385 1.37498C7.54104 1.37498 7.53824 1.37498 7.53543 1.37498C7.53263 1.37498 7.52983 1.37498 7.52703 1.37498C7.52424 1.37498 7.52144 1.37498 7.51865 1.37498C7.51585 1.37498 7.51306 1.37498 7.51027 1.37498C7.50748 1.37498 7.50469 1.37498 7.50191 1.37498C7.49912 1.37498 7.49634 1.37498 7.49356 1.37498C7.49077 1.37498 7.488 1.37498 7.48522 1.37498C7.48244 1.37498 7.47966 1.37498 7.47689 1.37498C7.47412 1.37498 7.47135 1.37498 7.46858 1.37498C7.46581 1.37498 7.46304 1.37498 7.46027 1.37498C7.45751 1.37498 7.45474 1.37498 7.45198 1.37498C7.44922 1.37498 7.44646 1.37498 7.4437 1.37498C7.44094 1.37498 7.43819 1.37498 7.43544 1.37498C7.43268 1.37498 7.42993 1.37498 7.42718 1.37498C7.42443 1.37498 7.42168 1.37498 7.41894 1.37498C7.41619 1.37498 7.41345 1.37498 7.4107 1.37498C7.40796 1.37498 7.40522 1.37498 7.40248 1.37498C7.39974 1.37498 7.39701 1.37498 7.39427 1.37498C7.39154 1.37498 7.38881 1.37498 7.38608 1.37498C7.38334 1.37498 7.38062 1.37498 7.37789 1.37498C7.37516 1.37498 7.37244 1.37498 7.36971 1.37498C7.36699 1.37498 7.36427 1.37498 7.36155 1.37498C7.35883 1.37498 7.35611 1.37498 7.3534 1.37498C7.35068 1.37498 7.34797 1.37498 7.34525 1.37498C7.34254 1.37498 7.33983 1.37498 7.33712 1.37498C7.33441 1.37498 7.33171 1.37498 7.329 1.37498C7.3263 1.37498 7.3236 1.37498 7.32089 1.37498C7.31819 1.37498 7.31549 1.37498 7.3128 1.37498C7.3101 1.37498 7.3074 1.37498 7.30471 1.37498C7.30202 1.37498 7.29932 1.37498 7.29663 1.37498C7.29394 1.37498 7.29125 1.37498 7.28857 1.37498C7.28588 1.37498 7.2832 1.37498 7.28051 1.37498C7.27783 1.37498 7.27515 1.37498 7.27247 1.37498C7.26979 1.37498 7.26711 1.37498 7.26443 1.37498C7.26176 1.37498 7.25908 1.37498 7.25641 1.37498C7.25374 1.37498 7.25107 1.37498 7.2484 1.37498C7.24573 1.37498 7.24306 1.37498 7.24039 1.37498C7.23773 1.37498 7.23506 1.37498 7.2324 1.37498C7.22974 1.37498 7.22708 1.37498 7.22442 1.37498C7.22176 1.37498 7.2191 1.37498 7.21644 1.37498C7.21379 1.37498 7.21113 1.37498 7.20848 1.37498C7.20583 1.37498 7.20318 1.37498 7.20053 1.37498C7.19788 1.37498 7.19523 1.37498 7.19259 1.37498C7.18994 1.37498 7.1873 1.37498 7.18465 1.37498C7.18201 1.37498 7.17937 1.37498 7.17673 1.37498C7.17409 1.37498 7.17145 1.37498 7.16882 1.37498C7.16618 1.37498 7.16355 1.37498 7.16092 1.37498C7.15828 1.37498 7.15565 1.37498 7.15302 1.37498C7.15039 1.37498 7.14776 1.37498 7.14514 1.37498C7.14251 1.37498 7.13989 1.37498 7.13726 1.37498C7.13464 1.37498 7.13202 1.37498 7.1294 1.37498C7.12678 1.37498 7.12416 1.37498 7.12154 1.37498C7.11893 1.37498 7.11631 1.37498 7.1137 1.37498C7.11108 1.37498 7.10847 1.37498 7.10586 1.37498C7.10325 1.37498 7.10064 1.37498 7.09803 1.37498C7.09542 1.37498 7.09282 1.37498 7.09021 1.37498C7.08761 1.37498 7.085 1.37498 7.0824 1.37498C7.0798 1.37498 7.0772 1.37498 7.0746 1.37498C7.072 1.37498 7.06941 1.37498 7.06681 1.37498C7.06421 1.37498 7.06162 1.37498 7.05903 1.37498C7.05643 1.37498 7.05384 1.37498 7.05125 1.37498C7.04866 1.37498 7.04607 1.37498 7.04349 1.37498C7.0409 1.37498 7.03831 1.37498 7.03573 1.37498C7.03315 1.37498 7.03056 1.37498 7.02798 1.37498C7.0254 1.37498 7.02282 1.37498 7.02024 1.37498C7.01766 1.37498 7.01509 1.37498 7.01251 1.37498C7.00994 1.37498 7.00736 1.37498 7.00479 1.37498C7.00222 1.37498 6.99965 1.37498 6.99708 1.37498C6.99451 1.37498 6.99194 1.37498 6.98937 1.37498C6.9868 1.37498 6.98424 1.37498 6.98167 1.37498C6.97911 1.37498 6.97655 1.37498 6.97398 1.37498C6.97142 1.37498 6.96886 1.37498 6.9663 1.37498C6.96374 1.37498 6.96119 1.37498 6.95863 1.37498C6.95607 1.37498 6.95352 1.37498 6.95097 1.37498C6.94841 1.37498 6.94586 1.37498 6.94331 1.37498C6.94076 1.37498 6.93821 1.37498 6.93566 1.37498C6.93311 1.37498 6.93056 1.37498 6.92802 1.37498C6.92547 1.37498 6.92293 1.37498 6.92039 1.37498C6.91784 1.37498 6.9153 1.37498 6.91276 1.37498C6.91022 1.37498 6.90768 1.37498 6.90514 1.37498C6.9026 1.37498 6.90007 1.37498 6.89753 1.37498C6.895 1.37498 6.89246 1.37498 6.88993 1.37498C6.8874 1.37498 6.88486 1.37498 6.88233 1.37498C6.8798 1.37498 6.87727 1.37498 6.87475 1.37498C6.87222 1.37498 6.86969 1.37498 6.86717 1.37498C6.86464 1.37498 6.86212 1.37498 6.85959 1.37498C6.85707 1.37498 6.85455 1.37498 6.85203 1.37498C6.84951 1.37498 6.84699 1.37498 6.84447 1.37498C6.84195 1.37498 6.83943 1.37498 6.83692 1.37498C6.8344 1.37498 6.83189 1.37498 6.82937 1.37498C6.82686 1.37498 6.82435 1.37498 6.82184 1.37498C6.81932 1.37498 6.81681 1.37498 6.8143 1.37498C6.8118 1.37498 6.80929 1.37498 6.80678 1.37498C6.80427 1.37498 6.80177 1.37498 6.79926 1.37498C6.79676 1.37498 6.79426 1.37498 6.79175 1.37498C6.78925 1.37498 6.78675 1.37498 6.78425 1.37498C6.78175 1.37498 6.77925 1.37498 6.77675 1.37498C6.77426 1.37498 6.77176 1.37498 6.76926 1.37498C6.76677 1.37498 6.76427 1.37498 6.76178 1.37498C6.75929 1.37498 6.75679 1.37498 6.7543 1.37498C6.75181 1.37498 6.74932 1.37498 6.74683 1.37498C6.74434 1.37498 6.74185 1.37498 6.73937 1.37498C6.73688 1.37498 6.73439 1.37498 6.73191 1.37498C6.72942 1.37498 6.72694 1.37498 6.72446 1.37498C6.72197 1.37498 6.71949 1.37498 6.71701 1.37498C6.71453 1.37498 6.71205 1.37498 6.70957 1.37498C6.70709 1.37498 6.70461 1.37498 6.70214 1.37498C6.69966 1.37498 6.69718 1.37498 6.69471 1.37498C6.69223 1.37498 6.68976 1.37498 6.68729 1.37498C6.68481 1.37498 6.68234 1.37498 6.67987 1.37498C6.6774 1.37498 6.67493 1.37498 6.67246 1.37498C6.66999 1.37498 6.66752 1.37498 6.66505 1.37498C6.66259 1.37498 6.66012 1.37498 6.65766 1.37498C6.65519 1.37498 6.65273 1.37498 6.65026 1.37498C6.6478 1.37498 6.64534 1.37498 6.64287 1.37498C6.64041 1.37498 6.63795 1.37498 6.63549 1.37498C6.63303 1.37498 6.63057 1.37498 6.62811 1.37498C6.62566 1.37498 6.6232 1.37498 6.62074 1.37498C6.61829 1.37498 6.61583 1.37498 6.61338 1.37498C6.61092 1.37498 6.60847 1.37498 6.60601 1.37498C6.60356 1.37498 6.60111 1.37498 6.59866 1.37498C6.59621 1.37498 6.59376 1.37498 6.59131 1.37498C6.58886 1.37498 6.58641 1.37498 6.58396 1.37498C6.58151 1.37498 6.57907 1.37498 6.57662 1.37498C6.57417 1.37498 6.57173 1.37498 6.56928 1.37498C6.56684 1.37498 6.56439 1.37498 6.56195 1.37498C6.55951 1.37498 6.55707 1.37498 6.55463 1.37498C6.55218 1.37498 6.54974 1.37498 6.5473 1.37498C6.54486 1.37498 6.54242 1.37498 6.53999 1.37498C6.53755 1.37498 6.53511 1.37498 6.53267 1.37498C6.53024 1.37498 6.5278 1.37498 6.52537 1.37498C6.52293 1.37498 6.5205 1.37498 6.51806 1.37498C6.51563 1.37498 6.5132 1.37498 6.51076 1.37498C6.50833 1.37498 6.5059 1.37498 6.50347 1.37498C6.50104 1.37498 6.49861 1.37498 6.49618 1.37498C6.49375 1.37498 6.49132 1.37498 6.48889 1.37498C6.48646 1.37498 6.48404 1.37498 6.48161 1.37498C6.47918 1.37498 6.47676 1.37498 6.47433 1.37498C6.47191 1.37498 6.46948 1.37498 6.46706 1.37498C6.46463 1.37498 6.46221 1.37498 6.45979 1.37498C6.45737 1.37498 6.45494 1.37498 6.45252 1.37498C6.4501 1.37498 6.44768 1.37498 6.44526 1.37498C6.44284 1.37498 6.44042 1.37498 6.438 1.37498C6.43558 1.37498 6.43316 1.37498 6.43075 1.37498C6.42833 1.37498 6.42591 1.37498 6.4235 1.37498C6.42108 1.37498 6.41866 1.37498 6.41625 1.37498C6.41383 1.37498 6.41142 1.37498 6.409 1.37498C6.40659 1.37498 6.40418 1.37498 6.40176 1.37498C6.39935 1.37498 6.39694 1.37498 6.39453 1.37498C6.39212 1.37498 6.3897 1.37498 6.38729 1.37498C6.38488 1.37498 6.38247 1.37498 6.38006 1.37498C6.37765 1.37498 6.37525 1.37498 6.37284 1.37498C6.37043 1.37498 6.36802 1.37498 6.36561 1.37498C6.36321 1.37498 6.3608 1.37498 6.35839 1.37498C6.35599 1.37498 6.35358 1.37498 6.35118 1.37498C6.34877 1.37498 6.34637 1.37498 6.34396 1.37498C6.34156 1.37498 6.33915 1.37498 6.33675 1.37498C6.33435 1.37498 6.33194 1.37498 6.32954 1.37498C6.32714 1.37498 6.32474 1.37498 6.32234 1.37498C6.31993 1.37498 6.31753 1.37498 6.31513 1.37498C6.31273 1.37498 6.31033 1.37498 6.30793 1.37498C6.30553 1.37498 6.30313 1.37498 6.30073 1.37498C6.29834 1.37498 6.29594 1.37498 6.29354 1.37498C6.29114 1.37498 6.28874 1.37498 6.28635 1.37498C6.28395 1.37498 6.28155 1.37498 6.27916 1.37498C6.27676 1.37498 6.27436 1.37498 6.27197 1.37498C6.26957 1.37498 6.26718 1.37498 6.26478 1.37498C6.26239 1.37498 6.25999 1.37498 6.2576 1.37498C6.25521 1.37498 6.25281 1.37498 6.25042 1.37498C6.24803 1.37498 6.24563 1.37498 6.24324 1.37498C6.24085 1.37498 6.23846 1.37498 6.23606 1.37498C6.23367 1.37498 6.23128 1.37498 6.22889 1.37498C6.2265 1.37498 6.22411 1.37498 6.22172 1.37498C6.21933 1.37498 6.21693 1.37498 6.21454 1.37498C6.21215 1.37498 6.20977 1.37498 6.20738 1.37498C6.20499 1.37498 6.2026 1.37498 6.20021 1.37498C6.19782 1.37498 6.19543 1.37498 6.19304 1.37498C6.19065 1.37498 6.18827 1.37498 6.18588 1.37498C6.18349 1.37498 6.1811 1.37498 6.17872 1.37498C6.17633 1.37498 6.17394 1.37498 6.17156 1.37498C6.16917 1.37498 6.16678 1.37498 6.1644 1.37498C6.16201 1.37498 6.15963 1.37498 6.15724 1.37498C6.15485 1.37498 6.15247 1.37498 6.15008 1.37498C6.1477 1.37498 6.14531 1.37498 6.14293 1.37498C6.14054 1.37498 6.13816 1.37498 6.13577 1.37498C6.13339 1.37498 6.131 1.37498 6.12862 1.37498C6.12624 1.37498 6.12385 1.37498 6.12147 1.37498C6.11909 1.37498 6.1167 1.37498 6.11432 1.37498C6.11194 1.37498 6.10955 1.37498 6.10717 1.37498C6.10479 1.37498 6.1024 1.37498 6.10002 1.37498C6.09764 1.37498 6.09525 1.37498 6.09287 1.37498C6.09049 1.37498 6.08811 1.37498 6.08573 1.37498C6.08334 1.37498 6.08096 1.37498 6.07858 1.37498C6.0762 1.37498 6.07381 1.37498 6.07143 1.37498C6.06905 1.37498 6.06667 1.37498 6.06429 1.37498C6.06191 1.37498 6.05953 1.37498 6.05714 1.37498C6.05476 1.37498 6.05238 1.37498 6.05 1.37498C6.04762 1.37498 6.04524 1.37498 6.04286 1.37498C6.04047 1.37498 6.03809 1.37498 6.03571 1.37498C6.03333 1.37498 6.03095 1.37498 6.02857 1.37498C6.02619 1.37498 6.02381 1.37498 6.02143 1.37498C6.01905 1.37498 6.01667 1.37498 6.01428 1.37498C6.0119 1.37498 6.00952 1.37498 6.00714 1.37498C6.00476 1.37498 6.00238 1.37498 6 1.37498C5.99762 1.37498 5.99524 1.37498 5.99286 1.37498C5.99048 1.37498 5.9881 1.37498 5.98572 1.37498C5.98333 1.37498 5.98095 1.37498 5.97857 1.37498C5.97619 1.37498 5.97381 1.37498 5.97143 1.37498C5.96905 1.37498 5.96667 1.37498 5.96429 1.37498C5.96191 1.37498 5.95953 1.37498 5.95714 1.37498C5.95476 1.37498 5.95238 1.37498 5.95 1.37498C5.94762 1.37498 5.94524 1.37498 5.94286 1.37498C5.94047 1.37498 5.93809 1.37498 5.93571 1.37498C5.93333 1.37498 5.93095 1.37498 5.92857 1.37498C5.92619 1.37498 5.9238 1.37498 5.92142 1.37498C5.91904 1.37498 5.91666 1.37498 5.91427 1.37498C5.91189 1.37498 5.90951 1.37498 5.90713 1.37498C5.90475 1.37498 5.90236 1.37498 5.89998 1.37498C5.8976 1.37498 5.89521 1.37498 5.89283 1.37498C5.89045 1.37498 5.88806 1.37498 5.88568 1.37498C5.8833 1.37498 5.88091 1.37498 5.87853 1.37498C5.87615 1.37498 5.87376 1.37498 5.87138 1.37498C5.869 1.37498 5.86661 1.37498 5.86423 1.37498C5.86184 1.37498 5.85946 1.37498 5.85707 1.37498C5.85469 1.37498 5.8523 1.37498 5.84992 1.37498C5.84753 1.37498 5.84515 1.37498 5.84276 1.37498C5.84037 1.37498 5.83799 1.37498 5.8356 1.37498C5.83322 1.37498 5.83083 1.37498 5.82844 1.37498C5.82606 1.37498 5.82367 1.37498 5.82128 1.37498C5.8189 1.37498 5.81651 1.37498 5.81412 1.37498C5.81173 1.37498 5.80935 1.37498 5.80696 1.37498C5.80457 1.37498 5.80218 1.37498 5.79979 1.37498C5.7974 1.37498 5.79501 1.37498 5.79262 1.37498C5.79023 1.37498 5.78785 1.37498 5.78546 1.37498C5.78307 1.37498 5.78067 1.37498 5.77828 1.37498C5.77589 1.37498 5.7735 1.37498 5.77111 1.37498C5.76872 1.37498 5.76633 1.37498 5.76394 1.37498C5.76154 1.37498 5.75915 1.37498 5.75676 1.37498C5.75437 1.37498 5.75197 1.37498 5.74958 1.37498C5.74719 1.37498 5.74479 1.37498 5.7424 1.37498C5.74001 1.37498 5.73761 1.37498 5.73522 1.37498C5.73282 1.37498 5.73043 1.37498 5.72803 1.37498C5.72564 1.37498 5.72324 1.37498 5.72084 1.37498C5.71845 1.37498 5.71605 1.37498 5.71365 1.37498C5.71126 1.37498 5.70886 1.37498 5.70646 1.37498C5.70406 1.37498 5.70166 1.37498 5.69927 1.37498C5.69687 1.37498 5.69447 1.37498 5.69207 1.37498C5.68967 1.37498 5.68727 1.37498 5.68487 1.37498C5.68247 1.37498 5.68007 1.37498 5.67766 1.37498C5.67526 1.37498 5.67286 1.37498 5.67046 1.37498C5.66806 1.37498 5.66565 1.37498 5.66325 1.37498C5.66085 1.37498 5.65844 1.37498 5.65604 1.37498C5.65363 1.37498 5.65123 1.37498 5.64882 1.37498C5.64642 1.37498 5.64401 1.37498 5.64161 1.37498C5.6392 1.37498 5.63679 1.37498 5.63439 1.37498C5.63198 1.37498 5.62957 1.37498 5.62716 1.37498C5.62475 1.37498 5.62235 1.37498 5.61994 1.37498C5.61753 1.37498 5.61512 1.37498 5.61271 1.37498C5.6103 1.37498 5.60788 1.37498 5.60547 1.37498C5.60306 1.37498 5.60065 1.37498 5.59824 1.37498C5.59582 1.37498 5.59341 1.37498 5.591 1.37498C5.58858 1.37498 5.58617 1.37498 5.58375 1.37498C5.58134 1.37498 5.57892 1.37498 5.5765 1.37498C5.57409 1.37498 5.57167 1.37498 5.56925 1.37498C5.56684 1.37498 5.56442 1.37498 5.562 1.37498C5.55958 1.37498 5.55716 1.37498 5.55474 1.37498C5.55232 1.37498 5.5499 1.37498 5.54748 1.37498C5.54506 1.37498 5.54263 1.37498 5.54021 1.37498C5.53779 1.37498 5.53537 1.37498 5.53294 1.37498C5.53052 1.37498 5.52809 1.37498 5.52567 1.37498C5.52324 1.37498 5.52082 1.37498 5.51839 1.37498C5.51596 1.37498 5.51354 1.37498 5.51111 1.37498C5.50868 1.37498 5.50625 1.37498 5.50382 1.37498C5.50139 1.37498 5.49896 1.37498 5.49653 1.37498C5.4941 1.37498 5.49167 1.37498 5.48924 1.37498C5.4868 1.37498 5.48437 1.37498 5.48194 1.37498C5.4795 1.37498 5.47707 1.37498 5.47463 1.37498C5.4722 1.37498 5.46976 1.37498 5.46733 1.37498C5.46489 1.37498 5.46245 1.37498 5.46001 1.37498C5.45758 1.37498 5.45514 1.37498 5.4527 1.37498C5.45026 1.37498 5.44782 1.37498 5.44537 1.37498C5.44293 1.37498 5.44049 1.37498 5.43805 1.37498C5.43561 1.37498 5.43316 1.37498 5.43072 1.37498C5.42827 1.37498 5.42583 1.37498 5.42338 1.37498C5.42093 1.37498 5.41849 1.37498 5.41604 1.37498C5.41359 1.37498 5.41114 1.37498 5.40869 1.37498C5.40624 1.37498 5.40379 1.37498 5.40134 1.37498C5.39889 1.37498 5.39644 1.37498 5.39399 1.37498C5.39153 1.37498 5.38908 1.37498 5.38662 1.37498C5.38417 1.37498 5.38171 1.37498 5.37926 1.37498C5.3768 1.37498 5.37434 1.37498 5.37189 1.37498C5.36943 1.37498 5.36697 1.37498 5.36451 1.37498C5.36205 1.37498 5.35959 1.37498 5.35713 1.37498C5.35466 1.37498 5.3522 1.37498 5.34974 1.37498C5.34727 1.37498 5.34481 1.37498 5.34234 1.37498C5.33988 1.37498 5.33741 1.37498 5.33495 1.37498C5.33248 1.37498 5.33001 1.37498 5.32754 1.37498C5.32507 1.37498 5.3226 1.37498 5.32013 1.37498C5.31766 1.37498 5.31519 1.37498 5.31271 1.37498C5.31024 1.37498 5.30777 1.37498 5.30529 1.37498C5.30282 1.37498 5.30034 1.37498 5.29786 1.37498C5.29539 1.37498 5.29291 1.37498 5.29043 1.37498C5.28795 1.37498 5.28547 1.37498 5.28299 1.37498C5.28051 1.37498 5.27803 1.37498 5.27554 1.37498C5.27306 1.37498 5.27058 1.37498 5.26809 1.37498C5.26561 1.37498 5.26312 1.37498 5.26063 1.37498C5.25815 1.37498 5.25566 1.37498 5.25317 1.37498C5.25068 1.37498 5.24819 1.37498 5.2457 1.37498C5.24321 1.37498 5.24071 1.37498 5.23822 1.37498C5.23573 1.37498 5.23323 1.37498 5.23074 1.37498C5.22824 1.37498 5.22574 1.37498 5.22325 1.37498C5.22075 1.37498 5.21825 1.37498 5.21575 1.37498C5.21325 1.37498 5.21075 1.37498 5.20825 1.37498C5.20574 1.37498 5.20324 1.37498 5.20074 1.37498C5.19823 1.37498 5.19573 1.37498 5.19322 1.37498C5.19071 1.37498 5.1882 1.37498 5.1857 1.37498C5.18319 1.37498 5.18068 1.37498 5.17816 1.37498C5.17565 1.37498 5.17314 1.37498 5.17063 1.37498C5.16811 1.37498 5.1656 1.37498 5.16308 1.37498C5.16057 1.37498 5.15805 1.37498 5.15553 1.37498C5.15301 1.37498 5.15049 1.37498 5.14797 1.37498C5.14545 1.37498 5.14293 1.37498 5.14041 1.37498C5.13788 1.37498 5.13536 1.37498 5.13283 1.37498C5.13031 1.37498 5.12778 1.37498 5.12525 1.37498C5.12273 1.37498 5.1202 1.37498 5.11767 1.37498C5.11513 1.37498 5.1126 1.37498 5.11007 1.37498C5.10754 1.37498 5.105 1.37498 5.10247 1.37498C5.09993 1.37498 5.0974 1.37498 5.09486 1.37498C5.09232 1.37498 5.08978 1.37498 5.08724 1.37498C5.0847 1.37498 5.08216 1.37498 5.07961 1.37498C5.07707 1.37498 5.07453 1.37498 5.07198 1.37498C5.06944 1.37498 5.06689 1.37498 5.06434 1.37498C5.06179 1.37498 5.05924 1.37498 5.05669 1.37498C5.05414 1.37498 5.05159 1.37498 5.04903 1.37498C5.04648 1.37498 5.04393 1.37498 5.04137 1.37498C5.03881 1.37498 5.03626 1.37498 5.0337 1.37498C5.03114 1.37498 5.02858 1.37498 5.02602 1.37498C5.02345 1.37498 5.02089 1.37498 5.01833 1.37498C5.01576 1.37498 5.0132 1.37498 5.01063 1.37498C5.00806 1.37498 5.00549 1.37498 5.00292 1.37498C5.00035 1.37498 4.99778 1.37498 4.99521 1.37498C4.99264 1.37498 4.99006 1.37498 4.98749 1.37498C4.98491 1.37498 4.98234 1.37498 4.97976 1.37498C4.97718 1.37498 4.9746 1.37498 4.97202 1.37498C4.96944 1.37498 4.96685 1.37498 4.96427 1.37498C4.96169 1.37498 4.9591 1.37498 4.95651 1.37498C4.95393 1.37498 4.95134 1.37498 4.94875 1.37498C4.94616 1.37498 4.94357 1.37498 4.94097 1.37498C4.93838 1.37498 4.93579 1.37498 4.93319 1.37498C4.93059 1.37498 4.928 1.37498 4.9254 1.37498C4.9228 1.37498 4.9202 1.37498 4.9176 1.37498C4.915 1.37498 4.91239 1.37498 4.90979 1.37498C4.90718 1.37498 4.90458 1.37498 4.90197 1.37498C4.89936 1.37498 4.89675 1.37498 4.89414 1.37498C4.89153 1.37498 4.88892 1.37498 4.8863 1.37498C4.88369 1.37498 4.88107 1.37498 4.87846 1.37498C4.87584 1.37498 4.87322 1.37498 4.8706 1.37498C4.86798 1.37498 4.86536 1.37498 4.86274 1.37498C4.86011 1.37498 4.85749 1.37498 4.85486 1.37498C4.85224 1.37498 4.84961 1.37498 4.84698 1.37498C4.84435 1.37498 4.84172 1.37498 4.83908 1.37498C4.83645 1.37498 4.83382 1.37498 4.83118 1.37498C4.82854 1.37498 4.82591 1.37498 4.82327 1.37498C4.82063 1.37498 4.81799 1.37498 4.81535 1.37498C4.8127 1.37498 4.81006 1.37498 4.80741 1.37498C4.80477 1.37498 4.80212 1.37498 4.79947 1.37498C4.79682 1.37498 4.79417 1.37498 4.79152 1.37498C4.78887 1.37498 4.78621 1.37498 4.78356 1.37498C4.7809 1.37498 4.77824 1.37498 4.77558 1.37498C4.77292 1.37498 4.77026 1.37498 4.7676 1.37498C4.76494 1.37498 4.76227 1.37498 4.75961 1.37498C4.75694 1.37498 4.75427 1.37498 4.7516 1.37498C4.74893 1.37498 4.74626 1.37498 4.74359 1.37498C4.74092 1.37498 4.73824 1.37498 4.73557 1.37498C4.73289 1.37498 4.73021 1.37498 4.72753 1.37498C4.72485 1.37498 4.72217 1.37498 4.71949 1.37498C4.7168 1.37498 4.71412 1.37498 4.71143 1.37498C4.70875 1.37498 4.70606 1.37498 4.70337 1.37498C4.70068 1.37498 4.69798 1.37498 4.69529 1.37498C4.6926 1.37498 4.6899 1.37498 4.6872 1.37498C4.68451 1.37498 4.68181 1.37498 4.67911 1.37498C4.6764 1.37498 4.6737 1.37498 4.671 1.37498C4.66829 1.37498 4.66559 1.37498 4.66288 1.37498C4.66017 1.37498 4.65746 1.37498 4.65475 1.37498C4.65203 1.37498 4.64932 1.37498 4.6466 1.37498C4.64389 1.37498 4.64117 1.37498 4.63845 1.37498C4.63573 1.37498 4.63301 1.37498 4.63029 1.37498C4.62756 1.37498 4.62484 1.37498 4.62211 1.37498C4.61938 1.37498 4.61666 1.37498 4.61392 1.37498C4.61119 1.37498 4.60846 1.37498 4.60573 1.37498C4.60299 1.37498 4.60026 1.37498 4.59752 1.37498C4.59478 1.37498 4.59204 1.37498 4.5893 1.37498C4.58655 1.37498 4.58381 1.37498 4.58106 1.37498C4.57832 1.37498 4.57557 1.37498 4.57282 1.37498C4.57007 1.37498 4.56732 1.37498 4.56456 1.37498C4.56181 1.37498 4.55906 1.37498 4.5563 1.37498C4.55354 1.37498 4.55078 1.37498 4.54802 1.37498C4.54526 1.37498 4.54249 1.37498 4.53973 1.37498C4.53696 1.37498 4.53419 1.37498 4.53142 1.37498C4.52865 1.37498 4.52588 1.37498 4.52311 1.37498C4.52034 1.37498 4.51756 1.37498 4.51478 1.37498C4.512 1.37498 4.50923 1.37498 4.50644 1.37498C4.50366 1.37498 4.50088 1.37498 4.49809 1.37498C4.49531 1.37498 4.49252 1.37498 4.48973 1.37498C4.48694 1.37498 4.48415 1.37498 4.48135 1.37498C4.47856 1.37498 4.47576 1.37498 4.47297 1.37498C4.47017 1.37498 4.46737 1.37498 4.46457 1.37498C4.46176 1.37498 4.45896 1.37498 4.45615 1.37498C4.45335 1.37498 4.45054 1.37498 4.44773 1.37498C4.44492 1.37498 4.4421 1.37498 4.43929 1.37498C4.43647 1.37498 4.43366 1.37498 4.43084 1.37498C4.42802 1.37498 4.4252 1.37498 4.42238 1.37498C4.41955 1.37498 4.41673 1.37498 4.4139 1.37498C4.41107 1.37498 4.40824 1.37498 4.40541 1.37498C4.40258 1.37498 4.39974 1.37498 4.39691 1.37498C4.39407 1.37498 4.39123 1.37498 4.38839 1.37498C4.38555 1.37498 4.38271 1.37498 4.37987 1.37498C4.37702 1.37498 4.37417 1.37498 4.37133 1.37498C4.36848 1.37498 4.36563 1.37498 4.36277 1.37498C4.35992 1.37498 4.35706 1.37498 4.3542 1.37498C4.35135 1.37498 4.34849 1.37498 4.34562 1.37498C4.34276 1.37498 4.3399 1.37498 4.33703 1.37498C4.33416 1.37498 4.3313 1.37498 4.32842 1.37498C4.32555 1.37498 4.32268 1.37498 4.3198 1.37498C4.31693 1.37498 4.31405 1.37498 4.31117 1.37498C4.30829 1.37498 4.30541 1.37498 4.30252 1.37498C4.29964 1.37498 4.29675 1.37498 4.29386 1.37498C4.29097 1.37498 4.28808 1.37498 4.28519 1.37498C4.28229 1.37498 4.2794 1.37498 4.2765 1.37498C4.2736 1.37498 4.2707 1.37498 4.26779 1.37498C4.26489 1.37498 4.26199 1.37498 4.25908 1.37498C4.25617 1.37498 4.25326 1.37498 4.25035 1.37498C4.24744 1.37498 4.24452 1.37498 4.2416 1.37498C4.23869 1.37498 4.23577 1.37498 4.23285 1.37498C4.22992 1.37498 4.227 1.37498 4.22407 1.37498C4.22115 1.37498 4.21822 1.37498 4.21529 1.37498C4.21236 1.37498 4.20942 1.37498 4.20649 1.37498C4.20355 1.37498 4.20061 1.37498 4.19767 1.37498C4.19473 1.37498 4.19179 1.37498 4.18884 1.37498C4.1859 1.37498 4.18295 1.37498 4.18 1.37498C4.17705 1.37498 4.1741 1.37498 4.17114 1.37498C4.16818 1.37498 4.16523 1.37498 4.16227 1.37498C4.15931 1.37498 4.15634 1.37498 4.15338 1.37498C4.15041 1.37498 4.14745 1.37498 4.14448 1.37498C4.14151 1.37498 4.13854 1.37498 4.13556 1.37498C4.13259 1.37498 4.12961 1.37498 4.12663 1.37498C4.12365 1.37498 4.12067 1.37498 4.11768 1.37498C4.1147 1.37498 4.11171 1.37498 4.10872 1.37498C4.10573 1.37498 4.10274 1.37498 4.09975 1.37498C4.09675 1.37498 4.09375 1.37498 4.09075 1.37498C4.08775 1.37498 4.08475 1.37498 4.08175 1.37498C4.07874 1.37498 4.07574 1.37498 4.07273 1.37498C4.06972 1.37498 4.0667 1.37498 4.06369 1.37498C4.06067 1.37498 4.05766 1.37498 4.05464 1.37498C4.05162 1.37498 4.04859 1.37498 4.04557 1.37498C4.04254 1.37498 4.03952 1.37498 4.03649 1.37498C4.03346 1.37498 4.03042 1.37498 4.02739 1.37498C4.02435 1.37498 4.02132 1.37498 4.01827 1.37498C4.01523 1.37498 4.01219 1.37498 4.00915 1.37498C4.0061 1.37498 4.00305 1.37498 4 1.37498V2.12498ZM10.125 4.24998V8.24998H10.875V4.24998H10.125ZM8 10.375H4V11.125H8V10.375ZM1.875 8.24998V4.24998H1.125V8.24998H1.875ZM4 10.375C2.8264 10.375 1.875 9.42359 1.875 8.24998H1.125C1.125 9.8378 2.41218 11.125 4 11.125V10.375ZM10.125 8.24998C10.125 9.42359 9.1736 10.375 8 10.375V11.125C9.58782 11.125 10.875 9.8378 10.875 8.24998H10.125ZM8 2.12498C9.1736 2.12498 10.125 3.07638 10.125 4.24998H10.875C10.875 2.66217 9.58782 1.37498 8 1.37498V2.12498ZM1.87515 2.31331C1.40946 2.82399 1.125 3.5042 1.125 4.24998H1.875C1.875 3.69838 2.08468 3.19661 2.42933 2.81866L1.87515 2.31331Z" fill="white"/>
<path d="M3 4.24998H10.5" stroke="white" stroke-width="0.75" stroke-linecap="round" stroke-linejoin="round"/>
<path d="M8.25 0.999985L8.25 2.49998" stroke="white" stroke-width="0.75" stroke-linecap="round" stroke-linejoin="round"/>
<path d="M3.75 0.999985L3.75 2.49998" stroke="white" stroke-width="0.75" stroke-linecap="round" stroke-linejoin="round"/>
<path d="M3.25 6.25H3.75" stroke="white" stroke-width="0.75" stroke-linecap="round" stroke-linejoin="round"/>
<path d="M5.75 6.25H6.25" stroke="white" stroke-width="0.75" stroke-linecap="round" stroke-linejoin="round"/>
<path d="M8.25 6.25H8.75" stroke="white" stroke-width="0.75" stroke-linecap="round" stroke-linejoin="round"/>
<path d="M3.25 8.25H3.75" stroke="white" stroke-width="0.75" stroke-linecap="round" stroke-linejoin="round"/>
<path d="M5.75 8.25H6.25" stroke="white" stroke-width="0.75" stroke-linecap="round" stroke-linejoin="round"/>
<path d="M8.25 8.25H8.75" stroke="white" stroke-width="0.75" stroke-linecap="round" stroke-linejoin="round"/>
</svg>
