<svg width="21" height="20" viewBox="0 0 21 20" fill="none" xmlns="http://www.w3.org/2000/svg">
<path fill-rule="evenodd" clip-rule="evenodd" d="M10.3552 1.66666C7.55374 1.66666 5.28272 3.93768 5.28272 6.73913V8.48283C5.28272 9.3998 4.69179 10.2018 4.22211 10.9893C3.97522 11.4033 3.83337 11.8872 3.83337 12.4043C3.83337 13.74 4.78771 14.8861 6.1108 15.0695C7.42471 15.2517 9.0665 15.435 10.3551 15.435C11.6437 15.435 13.2855 15.2517 14.5994 15.0695C15.9225 14.8861 16.8769 13.74 16.8769 12.4043C16.8769 11.8873 16.735 11.4034 16.4882 10.9894C16.0185 10.2019 15.4277 9.39992 15.4277 8.483V6.73913C15.4277 3.93768 13.1566 1.66666 10.3552 1.66666Z" fill="#334A34"/>
<path d="M3.83337 12.4043L3.20837 12.4043L3.83337 12.4043ZM6.1108 15.0695L6.02496 15.6886L6.02496 15.6886L6.1108 15.0695ZM14.5994 15.0695L14.5136 14.4505L14.5136 14.4505L14.5994 15.0695ZM16.4882 10.9894L15.9514 11.3095L16.4882 10.9894ZM5.90772 6.73913C5.90772 4.28286 7.89892 2.29166 10.3552 2.29166V1.04166C7.20856 1.04166 4.65772 3.5925 4.65772 6.73913H5.90772ZM5.90772 8.48283V6.73913H4.65772V8.48283H5.90772ZM4.45837 12.4043C4.45837 12.003 4.56813 11.6293 4.7589 11.3095L3.68532 10.6692C3.3823 11.1773 3.20837 11.7714 3.20837 12.4043L4.45837 12.4043ZM6.19665 14.4505C5.19695 14.3118 4.45837 13.4427 4.45837 12.4043L3.20837 12.4043C3.20837 14.0373 4.37847 15.4603 6.02496 15.6886L6.19665 14.4505ZM10.3551 14.81C9.1118 14.81 7.50548 14.6319 6.19665 14.4505L6.02496 15.6886C7.34394 15.8715 9.02119 16.06 10.3551 16.06V14.81ZM14.5136 14.4505C13.2048 14.6319 11.5984 14.81 10.3551 14.81V16.06C11.6891 16.06 13.3663 15.8715 14.6853 15.6886L14.5136 14.4505ZM16.2519 12.4043C16.2519 13.4427 15.5133 14.3118 14.5136 14.4505L14.6853 15.6886C16.3318 15.4603 17.5019 14.0373 17.5019 12.4043H16.2519ZM15.9514 11.3095C16.1421 11.6294 16.2519 12.0031 16.2519 12.4043H17.5019C17.5019 11.7715 17.328 11.1774 17.025 10.6693L15.9514 11.3095ZM14.8027 6.73913V8.483H16.0527V6.73913H14.8027ZM10.3552 2.29166C12.8115 2.29166 14.8027 4.28286 14.8027 6.73913H16.0527C16.0527 3.5925 13.5018 1.04166 10.3552 1.04166V2.29166ZM17.025 10.6693C16.7676 10.2376 16.5338 9.89179 16.341 9.50559C16.1564 9.1358 16.0527 8.8059 16.0527 8.483H14.8027C14.8027 9.07702 14.9943 9.60655 15.2226 10.0638C15.4427 10.5047 15.7391 10.9536 15.9514 11.3095L17.025 10.6693ZM4.65772 8.48283C4.65772 8.80575 4.55395 9.13566 4.36934 9.50547C4.17655 9.8917 3.94274 10.2376 3.68532 10.6692L4.7589 11.3095C4.97116 10.9536 5.26766 10.5047 5.48774 10.0638C5.71603 9.60644 5.90772 9.07688 5.90772 8.48283H4.65772Z" fill="#334A34"/>
<path d="M12.1666 17.3617C11.7772 17.9474 11.1112 18.3335 10.355 18.3335C9.59888 18.3335 8.9329 17.9474 8.54344 17.3617" stroke="#334A34" stroke-width="1.25" stroke-linecap="round"/>
</svg>
